{"title":"Froch Vs Groves 720p - Sky Sports","uid":9242710,"size":2315982674,"categoryP":"video","categoryS":"hd___tv_shows","magnet":"?xt=urn:btih:fa9acc0b6af7310c01e24deb494970524f310da2&amp;dn=Froch+Vs+Groves+720p+-+Sky+Sports&amp;tr=udp%3A%2F%2Ftracker.openbittorrent.com%3A80&amp;tr=udp%3A%2F%2Fopen.demonii.com%3A1337&amp;tr=udp%3A%2F%2Ftracker.coppersurfer.tk%3A6969&amp;tr=udp%3A%2F%2Fexodus.desync.com%3A6969","seeders":2,"leechers":0,"uploader":"xanaxvisa","files":1,"time":1385309737,"description":"Froch Vs Groves 23/11/13\n\n\n\n\nFormat                                   : MPEG-4\nFormat profile                           : 3GPP Media Release 4\nCodec ID                                 : 3gp4\nFile size                                : 2.16 GiB\nDuration                                 : 57mn 5s\nOverall bit rate                         : 5 409 Kbps\nEncoded date                             : UTC 2013-11-23 23:42:42\nTagged date                              : UTC 2013-11-23 23:42:42\n\nVideo\nID                                       : 1\nFormat                                   : AVC\nFormat/Info                              : Advanced Video Codec\nFormat profile                           : &lt;a class=&quot;__cf_email__&quot; href=&quot;/cdn-cgi/l/email-protection&quot; data-cfemail=&quot;f6be9f919eb6bac2d8c6&quot;&gt;[email&amp;#160;protected]&lt;/a&gt;&lt;script cf-hash='f9e31' type=&quot;text/javascript&quot;&gt;\n/* &lt;![CDATA[ */!function(){try{var t=&quot;currentScript&quot;in document?document.currentScript:function(){for(var t=document.getElementsByTagName(&quot;script&quot;),e=t.length;e--;)if(t[e].getAttribute(&quot;cf-hash&quot;))return t[e]}();if(t&amp;&amp;t.previousSibling){var e,r,n,i,c=t.previousSibling,a=c.getAttribute(&quot;data-cfemail&quot;);if(a){for(e=&quot;&quot;,r=parseInt(a.substr(0,2),16),n=2;a.length-n;n+=2)i=parseInt(a.substr(n,2),16)^r,e+=String.fromCharCode(i);e=document.createTextNode(e),c.parentNode.replaceChild(e,c)}}}catch(u){}}();/* ]]&gt; */&lt;/script&gt;\nFormat settings, CABAC                   : Yes\nFormat settings, ReFrames                : 3 frames\nCodec ID                                 : avc1\nCodec ID/Info                            : Advanced Video Coding\nDuration                                 : 57mn 5s\nBit rate                                 : 5 298 Kbps\nWidth                                    : 1 280 pixels\nHeight                                   : 720 pixels\nDisplay aspect ratio                     : 16:9\nFrame rate mode                          : Variable\nFrame rate                               : 59.940 fps\nMinimum frame rate                       : 59.701 fps\nMaximum frame rate                       : 60.060 fps\nStandard                                 : Component\nColor space                              : YUV\nChroma subsampling                       : 4:2:0\nBit depth                                : 8 bits\nScan type                                : Progressive\nBits/(Pixel*Frame)                       : 0.096\nStream size                              : 2.11 GiB (98%)\nLanguage                                 : English\nEncoded date                             : UTC 2013-11-23 23:42:42\nTagged date                              : UTC 2013-11-23 23:42:42\nColor primaries                          : BT.709-5, BT.1361, IEC 61966-2-4, SMPTE RP177\nTransfer characteristics                 : BT.709-5, BT.1361\nMatrix coefficients                      : BT.709-5, BT.1361, IEC 61966-2-4 709, SMPTE RP177\n\nAudio\nID                                       : 2\nFormat                                   : AAC\nFormat/Info                              : Advanced Audio Codec\nFormat profile                           : LC\nCodec ID                                 : 40\nDuration                                 : 57mn 5s\nBit rate mode                            : Constant\nBit rate                                 : 93.3 Kbps\nChannel(s)                               : 2 channels\nChannel positions                        : Front: L R\nSampling rate                            : 48.0 KHz\nCompression mode                         : Lossy\nStream size                              : 38.1 MiB (2%)\nLanguage                                 : English\nEncoded date                             : UTC 2013-11-23 23:42:4","torrent":{"xt":"urn:btih:fa9acc0b6af7310c01e24deb494970524f310da2","amp;dn":"Froch+Vs+Groves+720p+-+Sky+Sports","amp;tr":["udp%3A%2F%2Ftracker.openbittorrent.com%3A80","udp%3A%2F%2Fopen.demonii.com%3A1337","udp%3A%2F%2Ftracker.coppersurfer.tk%3A6969","udp%3A%2F%2Fexodus.desync.com%3A6969"],"infoHash":"fa9acc0b6af7310c01e24deb494970524f310da2","infoHashBuffer":{"type":"Buffer","data":[250,154,204,11,106,247,49,12,1,226,77,235,73,73,112,82,79,49,13,162]},"announce":[],"urlList":[]}}